ISO-10303-21;
HEADER;
/* Generated by software containing ST-Developer
 * from STEP Tools, Inc. (www.steptools.com) 
 */

FILE_DESCRIPTION(
/* description */ (''),
/* implementation_level */ '2;1');

FILE_NAME(
/* name */ 'panel-l.step',
/* time_stamp */ '2026-07-07T20:26:51+09:00',
/* author */ (''),
/* organization */ (''),
/* preprocessor_version */ 'ST-DEVELOPER v20.1',
/* originating_system */ 'Autodesk Translation Framework v15.8.0.0',
/* authorisation */ '');

FILE_SCHEMA (('AUTOMOTIVE_DESIGN { 1 0 10303 214 3 1 1 }'));
ENDSEC;

DATA;
#10=MECHANICAL_DESIGN_GEOMETRIC_PRESENTATION_REPRESENTATION('',(#13),#615);
#11=SHAPE_REPRESENTATION_RELATIONSHIP('SRR','None',#622,#12);
#12=ADVANCED_BREP_SHAPE_REPRESENTATION('',(#14),#614);
#13=STYLED_ITEM('',(#631),#14);
#14=MANIFOLD_SOLID_BREP('\X2\30DC30C730A3\X0\1',#371);
#15=FACE_BOUND('',#66,.T.);
#16=FACE_BOUND('',#67,.T.);
#17=FACE_BOUND('',#73,.T.);
#18=FACE_BOUND('',#74,.T.);
#19=FACE_BOUND('',#81,.T.);
#20=FACE_BOUND('',#82,.T.);
#21=PLANE('',#388);
#22=PLANE('',#392);
#23=PLANE('',#393);
#24=PLANE('',#394);
#25=PLANE('',#395);
#26=PLANE('',#396);
#27=PLANE('',#397);
#28=PLANE('',#400);
#29=PLANE('',#401);
#30=PLANE('',#402);
#31=PLANE('',#403);
#32=PLANE('',#404);
#33=PLANE('',#407);
#34=PLANE('',#408);
#35=PLANE('',#411);
#36=PLANE('',#412);
#37=FACE_OUTER_BOUND('',#57,.T.);
#38=FACE_OUTER_BOUND('',#58,.T.);
#39=FACE_OUTER_BOUND('',#59,.T.);
#40=FACE_OUTER_BOUND('',#60,.T.);
#41=FACE_OUTER_BOUND('',#61,.T.);
#42=FACE_OUTER_BOUND('',#62,.T.);
#43=FACE_OUTER_BOUND('',#63,.T.);
#44=FACE_OUTER_BOUND('',#64,.T.);
#45=FACE_OUTER_BOUND('',#65,.T.);
#46=FACE_OUTER_BOUND('',#68,.T.);
#47=FACE_OUTER_BOUND('',#69,.T.);
#48=FACE_OUTER_BOUND('',#70,.T.);
#49=FACE_OUTER_BOUND('',#71,.T.);
#50=FACE_OUTER_BOUND('',#72,.T.);
#51=FACE_OUTER_BOUND('',#75,.T.);
#52=FACE_OUTER_BOUND('',#76,.T.);
#53=FACE_OUTER_BOUND('',#77,.T.);
#54=FACE_OUTER_BOUND('',#78,.T.);
#55=FACE_OUTER_BOUND('',#79,.T.);
#56=FACE_OUTER_BOUND('',#80,.T.);
#57=EDGE_LOOP('',(#251,#252,#253,#254));
#58=EDGE_LOOP('',(#255));
#59=EDGE_LOOP('',(#256,#257,#258,#259));
#60=EDGE_LOOP('',(#260));
#61=EDGE_LOOP('',(#261,#262,#263,#264));
#62=EDGE_LOOP('',(#265,#266,#267,#268));
#63=EDGE_LOOP('',(#269,#270,#271,#272));
#64=EDGE_LOOP('',(#273,#274,#275,#276));
#65=EDGE_LOOP('',(#277,#278,#279,#280,#281,#282,#283,#284,#285,#286,#287,
#288));
#66=EDGE_LOOP('',(#289));
#67=EDGE_LOOP('',(#290));
#68=EDGE_LOOP('',(#291,#292,#293,#294));
#69=EDGE_LOOP('',(#295,#296,#297,#298));
#70=EDGE_LOOP('',(#299,#300,#301,#302));
#71=EDGE_LOOP('',(#303,#304,#305,#306));
#72=EDGE_LOOP('',(#307,#308,#309,#310));
#73=EDGE_LOOP('',(#311));
#74=EDGE_LOOP('',(#312));
#75=EDGE_LOOP('',(#313,#314,#315,#316));
#76=EDGE_LOOP('',(#317,#318,#319,#320));
#77=EDGE_LOOP('',(#321,#322,#323,#324));
#78=EDGE_LOOP('',(#325,#326,#327,#328));
#79=EDGE_LOOP('',(#329,#330,#331,#332));
#80=EDGE_LOOP('',(#333,#334,#335,#336,#337,#338,#339,#340,#341,#342,#343,
#344));
#81=EDGE_LOOP('',(#345));
#82=EDGE_LOOP('',(#346));
#83=LINE('',#516,#123);
#84=LINE('',#523,#124);
#85=LINE('',#529,#125);
#86=LINE('',#531,#126);
#87=LINE('',#533,#127);
#88=LINE('',#534,#128);
#89=LINE('',#537,#129);
#90=LINE('',#539,#130);
#91=LINE('',#540,#131);
#92=LINE('',#543,#132);
#93=LINE('',#545,#133);
#94=LINE('',#546,#134);
#95=LINE('',#548,#135);
#96=LINE('',#551,#136);
#97=LINE('',#553,#137);
#98=LINE('',#555,#138);
#99=LINE('',#557,#139);
#100=LINE('',#559,#140);
#101=LINE('',#561,#141);
#102=LINE('',#563,#142);
#103=LINE('',#565,#143);
#104=LINE('',#566,#144);
#105=LINE('',#573,#145);
#106=LINE('',#575,#146);
#107=LINE('',#576,#147);
#108=LINE('',#579,#148);
#109=LINE('',#580,#149);
#110=LINE('',#583,#150);
#111=LINE('',#584,#151);
#112=LINE('',#586,#152);
#113=LINE('',#590,#153);
#114=LINE('',#592,#154);
#115=LINE('',#594,#155);
#116=LINE('',#595,#156);
#117=LINE('',#601,#157);
#118=LINE('',#602,#158);
#119=LINE('',#604,#159);
#120=LINE('',#606,#160);
#121=LINE('',#608,#161);
#122=LINE('',#610,#162);
#123=VECTOR('',#419,2.25000000000001);
#124=VECTOR('',#428,2.25000000000001);
#125=VECTOR('',#435,10.);
#126=VECTOR('',#436,10.);
#127=VECTOR('',#437,10.);
#128=VECTOR('',#438,10.);
#129=VECTOR('',#441,10.);
#130=VECTOR('',#442,10.);
#131=VECTOR('',#443,10.);
#132=VECTOR('',#446,10.);
#133=VECTOR('',#447,10.);
#134=VECTOR('',#448,10.);
#135=VECTOR('',#451,10.);
#136=VECTOR('',#454,10.);
#137=VECTOR('',#455,10.);
#138=VECTOR('',#456,10.);
#139=VECTOR('',#457,10.);
#140=VECTOR('',#458,10.);
#141=VECTOR('',#459,10.);
#142=VECTOR('',#460,10.);
#143=VECTOR('',#461,10.);
#144=VECTOR('',#462,10.);
#145=VECTOR('',#469,10.);
#146=VECTOR('',#470,10.);
#147=VECTOR('',#471,10.);
#148=VECTOR('',#474,10.);
#149=VECTOR('',#475,10.);
#150=VECTOR('',#478,10.);
#151=VECTOR('',#479,10.);
#152=VECTOR('',#482,10.);
#153=VECTOR('',#485,10.);
#154=VECTOR('',#486,10.);
#155=VECTOR('',#487,10.);
#156=VECTOR('',#488,10.);
#157=VECTOR('',#495,10.);
#158=VECTOR('',#496,10.);
#159=VECTOR('',#499,10.);
#160=VECTOR('',#502,1.99999999999999);
#161=VECTOR('',#505,2.);
#162=VECTOR('',#508,10.);
#163=CIRCLE('',#386,2.25000000000001);
#164=CIRCLE('',#387,2.25000000000001);
#165=CIRCLE('',#390,2.25000000000001);
#166=CIRCLE('',#391,2.25000000000001);
#167=CIRCLE('',#398,2.);
#168=CIRCLE('',#399,1.99999999999999);
#169=CIRCLE('',#405,1.99999999999999);
#170=CIRCLE('',#406,2.);
#171=VERTEX_POINT('',#513);
#172=VERTEX_POINT('',#515);
#173=VERTEX_POINT('',#520);
#174=VERTEX_POINT('',#522);
#175=VERTEX_POINT('',#527);
#176=VERTEX_POINT('',#528);
#177=VERTEX_POINT('',#530);
#178=VERTEX_POINT('',#532);
#179=VERTEX_POINT('',#536);
#180=VERTEX_POINT('',#538);
#181=VERTEX_POINT('',#542);
#182=VERTEX_POINT('',#544);
#183=VERTEX_POINT('',#550);
#184=VERTEX_POINT('',#552);
#185=VERTEX_POINT('',#554);
#186=VERTEX_POINT('',#556);
#187=VERTEX_POINT('',#558);
#188=VERTEX_POINT('',#560);
#189=VERTEX_POINT('',#562);
#190=VERTEX_POINT('',#564);
#191=VERTEX_POINT('',#567);
#192=VERTEX_POINT('',#569);
#193=VERTEX_POINT('',#572);
#194=VERTEX_POINT('',#574);
#195=VERTEX_POINT('',#578);
#196=VERTEX_POINT('',#582);
#197=VERTEX_POINT('',#588);
#198=VERTEX_POINT('',#589);
#199=VERTEX_POINT('',#591);
#200=VERTEX_POINT('',#593);
#201=VERTEX_POINT('',#596);
#202=VERTEX_POINT('',#598);
#203=EDGE_CURVE('',#171,#171,#163,.T.);
#204=EDGE_CURVE('',#171,#172,#83,.T.);
#205=EDGE_CURVE('',#172,#172,#164,.T.);
#206=EDGE_CURVE('',#173,#173,#165,.T.);
#207=EDGE_CURVE('',#173,#174,#84,.T.);
#208=EDGE_CURVE('',#174,#174,#166,.T.);
#209=EDGE_CURVE('',#175,#176,#85,.T.);
#210=EDGE_CURVE('',#175,#177,#86,.T.);
#211=EDGE_CURVE('',#178,#177,#87,.T.);
#212=EDGE_CURVE('',#176,#178,#88,.T.);
#213=EDGE_CURVE('',#176,#179,#89,.T.);
#214=EDGE_CURVE('',#180,#178,#90,.T.);
#215=EDGE_CURVE('',#179,#180,#91,.T.);
#216=EDGE_CURVE('',#179,#181,#92,.T.);
#217=EDGE_CURVE('',#182,#180,#93,.T.);
#218=EDGE_CURVE('',#181,#182,#94,.T.);
#219=EDGE_CURVE('',#177,#182,#95,.T.);
#220=EDGE_CURVE('',#183,#181,#96,.T.);
#221=EDGE_CURVE('',#183,#184,#97,.T.);
#222=EDGE_CURVE('',#184,#185,#98,.T.);
#223=EDGE_CURVE('',#185,#186,#99,.T.);
#224=EDGE_CURVE('',#187,#186,#100,.T.);
#225=EDGE_CURVE('',#187,#188,#101,.T.);
#226=EDGE_CURVE('',#188,#189,#102,.T.);
#227=EDGE_CURVE('',#189,#190,#103,.T.);
#228=EDGE_CURVE('',#175,#190,#104,.T.);
#229=EDGE_CURVE('',#191,#191,#167,.T.);
#230=EDGE_CURVE('',#192,#192,#168,.T.);
#231=EDGE_CURVE('',#183,#193,#105,.T.);
#232=EDGE_CURVE('',#194,#193,#106,.T.);
#233=EDGE_CURVE('',#184,#194,#107,.T.);
#234=EDGE_CURVE('',#195,#194,#108,.T.);
#235=EDGE_CURVE('',#185,#195,#109,.T.);
#236=EDGE_CURVE('',#196,#195,#110,.T.);
#237=EDGE_CURVE('',#186,#196,#111,.T.);
#238=EDGE_CURVE('',#193,#196,#112,.T.);
#239=EDGE_CURVE('',#197,#198,#113,.T.);
#240=EDGE_CURVE('',#197,#199,#114,.T.);
#241=EDGE_CURVE('',#199,#200,#115,.T.);
#242=EDGE_CURVE('',#200,#198,#116,.T.);
#243=EDGE_CURVE('',#201,#201,#169,.T.);
#244=EDGE_CURVE('',#202,#202,#170,.T.);
#245=EDGE_CURVE('',#199,#189,#117,.T.);
#246=EDGE_CURVE('',#200,#188,#118,.T.);
#247=EDGE_CURVE('',#190,#197,#119,.T.);
#248=EDGE_CURVE('',#192,#201,#120,.T.);
#249=EDGE_CURVE('',#191,#202,#121,.T.);
#250=EDGE_CURVE('',#198,#187,#122,.T.);
#251=ORIENTED_EDGE('',*,*,#203,.F.);
#252=ORIENTED_EDGE('',*,*,#204,.T.);
#253=ORIENTED_EDGE('',*,*,#205,.F.);
#254=ORIENTED_EDGE('',*,*,#204,.F.);
#255=ORIENTED_EDGE('',*,*,#203,.T.);
#256=ORIENTED_EDGE('',*,*,#206,.F.);
#257=ORIENTED_EDGE('',*,*,#207,.T.);
#258=ORIENTED_EDGE('',*,*,#208,.F.);
#259=ORIENTED_EDGE('',*,*,#207,.F.);
#260=ORIENTED_EDGE('',*,*,#206,.T.);
#261=ORIENTED_EDGE('',*,*,#209,.F.);
#262=ORIENTED_EDGE('',*,*,#210,.T.);
#263=ORIENTED_EDGE('',*,*,#211,.F.);
#264=ORIENTED_EDGE('',*,*,#212,.F.);
#265=ORIENTED_EDGE('',*,*,#213,.F.);
#266=ORIENTED_EDGE('',*,*,#212,.T.);
#267=ORIENTED_EDGE('',*,*,#214,.F.);
#268=ORIENTED_EDGE('',*,*,#215,.F.);
#269=ORIENTED_EDGE('',*,*,#216,.F.);
#270=ORIENTED_EDGE('',*,*,#215,.T.);
#271=ORIENTED_EDGE('',*,*,#217,.F.);
#272=ORIENTED_EDGE('',*,*,#218,.F.);
#273=ORIENTED_EDGE('',*,*,#217,.T.);
#274=ORIENTED_EDGE('',*,*,#214,.T.);
#275=ORIENTED_EDGE('',*,*,#211,.T.);
#276=ORIENTED_EDGE('',*,*,#219,.T.);
#277=ORIENTED_EDGE('',*,*,#209,.T.);
#278=ORIENTED_EDGE('',*,*,#213,.T.);
#279=ORIENTED_EDGE('',*,*,#216,.T.);
#280=ORIENTED_EDGE('',*,*,#220,.F.);
#281=ORIENTED_EDGE('',*,*,#221,.T.);
#282=ORIENTED_EDGE('',*,*,#222,.T.);
#283=ORIENTED_EDGE('',*,*,#223,.T.);
#284=ORIENTED_EDGE('',*,*,#224,.F.);
#285=ORIENTED_EDGE('',*,*,#225,.T.);
#286=ORIENTED_EDGE('',*,*,#226,.T.);
#287=ORIENTED_EDGE('',*,*,#227,.T.);
#288=ORIENTED_EDGE('',*,*,#228,.F.);
#289=ORIENTED_EDGE('',*,*,#229,.T.);
#290=ORIENTED_EDGE('',*,*,#230,.T.);
#291=ORIENTED_EDGE('',*,*,#221,.F.);
#292=ORIENTED_EDGE('',*,*,#231,.T.);
#293=ORIENTED_EDGE('',*,*,#232,.F.);
#294=ORIENTED_EDGE('',*,*,#233,.F.);
#295=ORIENTED_EDGE('',*,*,#222,.F.);
#296=ORIENTED_EDGE('',*,*,#233,.T.);
#297=ORIENTED_EDGE('',*,*,#234,.F.);
#298=ORIENTED_EDGE('',*,*,#235,.F.);
#299=ORIENTED_EDGE('',*,*,#223,.F.);
#300=ORIENTED_EDGE('',*,*,#235,.T.);
#301=ORIENTED_EDGE('',*,*,#236,.F.);
#302=ORIENTED_EDGE('',*,*,#237,.F.);
#303=ORIENTED_EDGE('',*,*,#238,.T.);
#304=ORIENTED_EDGE('',*,*,#236,.T.);
#305=ORIENTED_EDGE('',*,*,#234,.T.);
#306=ORIENTED_EDGE('',*,*,#232,.T.);
#307=ORIENTED_EDGE('',*,*,#239,.F.);
#308=ORIENTED_EDGE('',*,*,#240,.T.);
#309=ORIENTED_EDGE('',*,*,#241,.T.);
#310=ORIENTED_EDGE('',*,*,#242,.T.);
#311=ORIENTED_EDGE('',*,*,#243,.T.);
#312=ORIENTED_EDGE('',*,*,#244,.T.);
#313=ORIENTED_EDGE('',*,*,#241,.F.);
#314=ORIENTED_EDGE('',*,*,#245,.T.);
#315=ORIENTED_EDGE('',*,*,#226,.F.);
#316=ORIENTED_EDGE('',*,*,#246,.F.);
#317=ORIENTED_EDGE('',*,*,#247,.F.);
#318=ORIENTED_EDGE('',*,*,#227,.F.);
#319=ORIENTED_EDGE('',*,*,#245,.F.);
#320=ORIENTED_EDGE('',*,*,#240,.F.);
#321=ORIENTED_EDGE('',*,*,#230,.F.);
#322=ORIENTED_EDGE('',*,*,#248,.T.);
#323=ORIENTED_EDGE('',*,*,#243,.F.);
#324=ORIENTED_EDGE('',*,*,#248,.F.);
#325=ORIENTED_EDGE('',*,*,#229,.F.);
#326=ORIENTED_EDGE('',*,*,#249,.T.);
#327=ORIENTED_EDGE('',*,*,#244,.F.);
#328=ORIENTED_EDGE('',*,*,#249,.F.);
#329=ORIENTED_EDGE('',*,*,#250,.F.);
#330=ORIENTED_EDGE('',*,*,#242,.F.);
#331=ORIENTED_EDGE('',*,*,#246,.T.);
#332=ORIENTED_EDGE('',*,*,#225,.F.);
#333=ORIENTED_EDGE('',*,*,#250,.T.);
#334=ORIENTED_EDGE('',*,*,#224,.T.);
#335=ORIENTED_EDGE('',*,*,#237,.T.);
#336=ORIENTED_EDGE('',*,*,#238,.F.);
#337=ORIENTED_EDGE('',*,*,#231,.F.);
#338=ORIENTED_EDGE('',*,*,#220,.T.);
#339=ORIENTED_EDGE('',*,*,#218,.T.);
#340=ORIENTED_EDGE('',*,*,#219,.F.);
#341=ORIENTED_EDGE('',*,*,#210,.F.);
#342=ORIENTED_EDGE('',*,*,#228,.T.);
#343=ORIENTED_EDGE('',*,*,#247,.T.);
#344=ORIENTED_EDGE('',*,*,#239,.T.);
#345=ORIENTED_EDGE('',*,*,#205,.T.);
#346=ORIENTED_EDGE('',*,*,#208,.T.);
#347=CYLINDRICAL_SURFACE('',#385,2.25000000000001);
#348=CYLINDRICAL_SURFACE('',#389,2.25000000000001);
#349=CYLINDRICAL_SURFACE('',#409,1.99999999999999);
#350=CYLINDRICAL_SURFACE('',#410,2.);
#351=ADVANCED_FACE('',(#37),#347,.T.);
#352=ADVANCED_FACE('',(#38),#21,.T.);
#353=ADVANCED_FACE('',(#39),#348,.T.);
#354=ADVANCED_FACE('',(#40),#22,.T.);
#355=ADVANCED_FACE('',(#41),#23,.T.);
#356=ADVANCED_FACE('',(#42),#24,.T.);
#357=ADVANCED_FACE('',(#43),#25,.T.);
#358=ADVANCED_FACE('',(#44),#26,.T.);
#359=ADVANCED_FACE('',(#45,#15,#16),#27,.T.);
#360=ADVANCED_FACE('',(#46),#28,.T.);
#361=ADVANCED_FACE('',(#47),#29,.T.);
#362=ADVANCED_FACE('',(#48),#30,.T.);
#363=ADVANCED_FACE('',(#49),#31,.T.);
#364=ADVANCED_FACE('',(#50,#17,#18),#32,.F.);
#365=ADVANCED_FACE('',(#51),#33,.T.);
#366=ADVANCED_FACE('',(#52),#34,.T.);
#367=ADVANCED_FACE('',(#53),#349,.F.);
#368=ADVANCED_FACE('',(#54),#350,.F.);
#369=ADVANCED_FACE('',(#55),#35,.T.);
#370=ADVANCED_FACE('',(#56,#19,#20),#36,.T.);
#371=CLOSED_SHELL('',(#351,#352,#353,#354,#355,#356,#357,#358,#359,#360,
#361,#362,#363,#364,#365,#366,#367,#368,#369,#370));
#372=DERIVED_UNIT_ELEMENT(#374,1.);
#373=DERIVED_UNIT_ELEMENT(#617,-3.);
#374=(
MASS_UNIT()
NAMED_UNIT(*)
SI_UNIT(.KILO.,.GRAM.)
);
#375=DERIVED_UNIT((#372,#373));
#376=MEASURE_REPRESENTATION_ITEM('density measure',
POSITIVE_RATIO_MEASURE(7850.),#375);
#377=PROPERTY_DEFINITION_REPRESENTATION(#382,#379);
#378=PROPERTY_DEFINITION_REPRESENTATION(#383,#380);
#379=REPRESENTATION('material name',(#381),#614);
#380=REPRESENTATION('density',(#376),#614);
#381=DESCRIPTIVE_REPRESENTATION_ITEM('\X2\92FC\X0\','\X2\92FC\X0\');
#382=PROPERTY_DEFINITION('material property','material name',#624);
#383=PROPERTY_DEFINITION('material property','density of part',#624);
#384=AXIS2_PLACEMENT_3D('',#511,#413,#414);
#385=AXIS2_PLACEMENT_3D('',#512,#415,#416);
#386=AXIS2_PLACEMENT_3D('',#514,#417,#418);
#387=AXIS2_PLACEMENT_3D('',#517,#420,#421);
#388=AXIS2_PLACEMENT_3D('',#518,#422,#423);
#389=AXIS2_PLACEMENT_3D('',#519,#424,#425);
#390=AXIS2_PLACEMENT_3D('',#521,#426,#427);
#391=AXIS2_PLACEMENT_3D('',#524,#429,#430);
#392=AXIS2_PLACEMENT_3D('',#525,#431,#432);
#393=AXIS2_PLACEMENT_3D('',#526,#433,#434);
#394=AXIS2_PLACEMENT_3D('',#535,#439,#440);
#395=AXIS2_PLACEMENT_3D('',#541,#444,#445);
#396=AXIS2_PLACEMENT_3D('',#547,#449,#450);
#397=AXIS2_PLACEMENT_3D('',#549,#452,#453);
#398=AXIS2_PLACEMENT_3D('',#568,#463,#464);
#399=AXIS2_PLACEMENT_3D('',#570,#465,#466);
#400=AXIS2_PLACEMENT_3D('',#571,#467,#468);
#401=AXIS2_PLACEMENT_3D('',#577,#472,#473);
#402=AXIS2_PLACEMENT_3D('',#581,#476,#477);
#403=AXIS2_PLACEMENT_3D('',#585,#480,#481);
#404=AXIS2_PLACEMENT_3D('',#587,#483,#484);
#405=AXIS2_PLACEMENT_3D('',#597,#489,#490);
#406=AXIS2_PLACEMENT_3D('',#599,#491,#492);
#407=AXIS2_PLACEMENT_3D('',#600,#493,#494);
#408=AXIS2_PLACEMENT_3D('',#603,#497,#498);
#409=AXIS2_PLACEMENT_3D('',#605,#500,#501);
#410=AXIS2_PLACEMENT_3D('',#607,#503,#504);
#411=AXIS2_PLACEMENT_3D('',#609,#506,#507);
#412=AXIS2_PLACEMENT_3D('',#611,#509,#510);
#413=DIRECTION('axis',(0.,0.,1.));
#414=DIRECTION('refdir',(1.,0.,0.));
#415=DIRECTION('center_axis',(1.,0.,0.));
#416=DIRECTION('ref_axis',(0.,1.,0.));
#417=DIRECTION('center_axis',(1.,0.,0.));
#418=DIRECTION('ref_axis',(0.,1.,0.));
#419=DIRECTION('',(-1.,0.,0.));
#420=DIRECTION('center_axis',(-1.,0.,0.));
#421=DIRECTION('ref_axis',(0.,1.,0.));
#422=DIRECTION('center_axis',(1.,0.,0.));
#423=DIRECTION('ref_axis',(0.,1.,0.));
#424=DIRECTION('center_axis',(1.,0.,0.));
#425=DIRECTION('ref_axis',(0.,1.,0.));
#426=DIRECTION('center_axis',(1.,0.,0.));
#427=DIRECTION('ref_axis',(0.,1.,0.));
#428=DIRECTION('',(-1.,0.,0.));
#429=DIRECTION('center_axis',(-1.,0.,0.));
#430=DIRECTION('ref_axis',(0.,1.,0.));
#431=DIRECTION('center_axis',(1.,0.,0.));
#432=DIRECTION('ref_axis',(0.,1.,0.));
#433=DIRECTION('center_axis',(0.,-1.,0.));
#434=DIRECTION('ref_axis',(1.,0.,0.));
#435=DIRECTION('',(-1.,0.,0.));
#436=DIRECTION('',(0.,0.,1.));
#437=DIRECTION('',(1.,0.,0.));
#438=DIRECTION('',(0.,0.,1.));
#439=DIRECTION('center_axis',(-1.,0.,0.));
#440=DIRECTION('ref_axis',(0.,-1.,0.));
#441=DIRECTION('',(0.,1.,0.));
#442=DIRECTION('',(0.,-1.,0.));
#443=DIRECTION('',(0.,0.,1.));
#444=DIRECTION('center_axis',(0.,1.,0.));
#445=DIRECTION('ref_axis',(-1.,0.,0.));
#446=DIRECTION('',(1.,0.,0.));
#447=DIRECTION('',(-1.,0.,0.));
#448=DIRECTION('',(0.,0.,1.));
#449=DIRECTION('center_axis',(0.,0.,1.));
#450=DIRECTION('ref_axis',(1.,0.,0.));
#451=DIRECTION('',(0.,1.,0.));
#452=DIRECTION('center_axis',(0.,0.,1.));
#453=DIRECTION('ref_axis',(1.,0.,0.));
#454=DIRECTION('',(0.,-1.,0.));
#455=DIRECTION('',(-1.,0.,0.));
#456=DIRECTION('',(0.,1.,0.));
#457=DIRECTION('',(1.,0.,0.));
#458=DIRECTION('',(0.,-1.,0.));
#459=DIRECTION('',(-1.,0.,0.));
#460=DIRECTION('',(0.,-1.,0.));
#461=DIRECTION('',(1.,0.,0.));
#462=DIRECTION('',(0.,-1.,0.));
#463=DIRECTION('center_axis',(0.,0.,-1.));
#464=DIRECTION('ref_axis',(-1.,0.,0.));
#465=DIRECTION('center_axis',(0.,0.,-1.));
#466=DIRECTION('ref_axis',(-1.,0.,0.));
#467=DIRECTION('center_axis',(0.,-1.,0.));
#468=DIRECTION('ref_axis',(1.,0.,0.));
#469=DIRECTION('',(0.,0.,1.));
#470=DIRECTION('',(1.,0.,0.));
#471=DIRECTION('',(0.,0.,1.));
#472=DIRECTION('center_axis',(-1.,0.,0.));
#473=DIRECTION('ref_axis',(0.,-1.,0.));
#474=DIRECTION('',(0.,-1.,0.));
#475=DIRECTION('',(0.,0.,1.));
#476=DIRECTION('center_axis',(0.,1.,0.));
#477=DIRECTION('ref_axis',(-1.,0.,0.));
#478=DIRECTION('',(-1.,0.,0.));
#479=DIRECTION('',(0.,0.,1.));
#480=DIRECTION('center_axis',(0.,0.,1.));
#481=DIRECTION('ref_axis',(1.,0.,0.));
#482=DIRECTION('',(0.,1.,0.));
#483=DIRECTION('center_axis',(0.,0.,1.));
#484=DIRECTION('ref_axis',(1.,0.,0.));
#485=DIRECTION('',(0.,1.,0.));
#486=DIRECTION('',(-1.,0.,0.));
#487=DIRECTION('',(0.,1.,0.));
#488=DIRECTION('',(1.,0.,0.));
#489=DIRECTION('center_axis',(0.,0.,1.));
#490=DIRECTION('ref_axis',(-1.,0.,0.));
#491=DIRECTION('center_axis',(0.,0.,1.));
#492=DIRECTION('ref_axis',(-1.,0.,0.));
#493=DIRECTION('center_axis',(-1.,0.,0.));
#494=DIRECTION('ref_axis',(0.,-1.,0.));
#495=DIRECTION('',(0.,0.,1.));
#496=DIRECTION('',(0.,0.,1.));
#497=DIRECTION('center_axis',(0.,-1.,0.));
#498=DIRECTION('ref_axis',(1.,0.,0.));
#499=DIRECTION('',(0.,0.,-1.));
#500=DIRECTION('center_axis',(0.,0.,-1.));
#501=DIRECTION('ref_axis',(-1.,0.,0.));
#502=DIRECTION('',(0.,0.,-1.));
#503=DIRECTION('center_axis',(0.,0.,-1.));
#504=DIRECTION('ref_axis',(-1.,0.,0.));
#505=DIRECTION('',(0.,0.,-1.));
#506=DIRECTION('center_axis',(0.,1.,0.));
#507=DIRECTION('ref_axis',(-1.,0.,0.));
#508=DIRECTION('',(0.,0.,1.));
#509=DIRECTION('center_axis',(1.,0.,0.));
#510=DIRECTION('ref_axis',(0.,0.,-1.));
#511=CARTESIAN_POINT('',(0.,0.,0.));
#512=CARTESIAN_POINT('Origin',(25.,255.000003799796,10.0000001490116));
#513=CARTESIAN_POINT('',(30.,252.750003799796,10.0000001490116));
#514=CARTESIAN_POINT('Origin',(30.,255.000003799796,10.0000001490116));
#515=CARTESIAN_POINT('',(25.,252.750003799796,10.0000001490116));
#516=CARTESIAN_POINT('',(25.,252.750003799796,10.0000001490116));
#517=CARTESIAN_POINT('Origin',(25.,255.000003799796,10.0000001490116));
#518=CARTESIAN_POINT('Origin',(30.,255.000003799796,10.0000001490116));
#519=CARTESIAN_POINT('Origin',(25.,410.000006109476,10.0000001490116));
#520=CARTESIAN_POINT('',(30.,407.750006109476,10.0000001490116));
#521=CARTESIAN_POINT('Origin',(30.,410.000006109476,10.0000001490116));
#522=CARTESIAN_POINT('',(25.,407.750006109476,10.0000001490116));
#523=CARTESIAN_POINT('',(25.,407.750006109476,10.0000001490116));
#524=CARTESIAN_POINT('Origin',(25.,410.000006109476,10.0000001490116));
#525=CARTESIAN_POINT('Origin',(30.,410.000006109476,10.0000001490116));
#526=CARTESIAN_POINT('Origin',(4.99999888241291,250.00000372529,5.));
#527=CARTESIAN_POINT('',(24.9999988824129,250.00000372529,5.));
#528=CARTESIAN_POINT('',(4.99999888241291,250.00000372529,5.));
#529=CARTESIAN_POINT('',(27.4999994412065,250.00000372529,5.));
#530=CARTESIAN_POINT('',(24.9999988824129,250.00000372529,15.));
#531=CARTESIAN_POINT('',(24.9999988824129,250.00000372529,5.));
#532=CARTESIAN_POINT('',(4.99999888241291,250.00000372529,15.));
#533=CARTESIAN_POINT('',(24.9999988824129,250.00000372529,15.));
#534=CARTESIAN_POINT('',(4.99999888241291,250.00000372529,5.));
#535=CARTESIAN_POINT('Origin',(4.99999888241291,260.00000372529,5.));
#536=CARTESIAN_POINT('',(4.99999888241291,260.00000372529,5.));
#537=CARTESIAN_POINT('',(4.99999888241291,296.250001862645,5.));
#538=CARTESIAN_POINT('',(4.99999888241291,260.00000372529,15.));
#539=CARTESIAN_POINT('',(4.99999888241291,250.00000372529,15.));
#540=CARTESIAN_POINT('',(4.99999888241291,260.00000372529,5.));
#541=CARTESIAN_POINT('Origin',(24.9999988824129,260.00000372529,5.));
#542=CARTESIAN_POINT('',(24.9999988824129,260.00000372529,5.));
#543=CARTESIAN_POINT('',(37.4999994412065,260.00000372529,5.));
#544=CARTESIAN_POINT('',(24.9999988824129,260.00000372529,15.));
#545=CARTESIAN_POINT('',(4.99999888241291,260.00000372529,15.));
#546=CARTESIAN_POINT('',(24.9999988824129,260.00000372529,5.));
#547=CARTESIAN_POINT('Origin',(14.9999988824129,255.00000372529,15.));
#548=CARTESIAN_POINT('',(24.9999988824129,260.00000372529,15.));
#549=CARTESIAN_POINT('Origin',(50.,332.5,5.));
#550=CARTESIAN_POINT('',(24.9999988824129,405.00000603497,5.));
#551=CARTESIAN_POINT('',(25.,332.5,5.));
#552=CARTESIAN_POINT('',(4.99999858438969,405.00000603497,5.));
#553=CARTESIAN_POINT('',(27.4999992921948,405.00000603497,5.));
#554=CARTESIAN_POINT('',(4.99999858438969,415.000006183982,5.));
#555=CARTESIAN_POINT('',(4.99999858438969,373.750003091991,5.));
#556=CARTESIAN_POINT('',(24.9999988824129,415.000006183982,5.));
#557=CARTESIAN_POINT('',(37.4999994412065,415.000006183982,5.));
#558=CARTESIAN_POINT('',(25.,440.,5.));
#559=CARTESIAN_POINT('',(25.,332.5,5.));
#560=CARTESIAN_POINT('',(-95.,440.,5.));
#561=CARTESIAN_POINT('',(-95.,440.,5.));
#562=CARTESIAN_POINT('',(-95.,225.,5.));
#563=CARTESIAN_POINT('',(-95.,225.,5.));
#564=CARTESIAN_POINT('',(25.,225.,5.));
#565=CARTESIAN_POINT('',(195.,225.,5.));
#566=CARTESIAN_POINT('',(25.,332.5,5.));
#567=CARTESIAN_POINT('',(-73.,230.,5.));
#568=CARTESIAN_POINT('Origin',(-75.,230.,5.));
#569=CARTESIAN_POINT('',(-73.,435.,5.));
#570=CARTESIAN_POINT('Origin',(-75.,435.,5.));
#571=CARTESIAN_POINT('Origin',(4.99999858438969,405.00000603497,5.));
#572=CARTESIAN_POINT('',(24.9999988824129,405.00000603497,15.));
#573=CARTESIAN_POINT('',(24.9999988824129,405.00000603497,5.));
#574=CARTESIAN_POINT('',(4.99999858438969,405.00000603497,15.));
#575=CARTESIAN_POINT('',(4.99999858438969,405.00000603497,15.));
#576=CARTESIAN_POINT('',(4.99999858438969,405.00000603497,5.));
#577=CARTESIAN_POINT('Origin',(4.99999858438969,415.000006183982,5.));
#578=CARTESIAN_POINT('',(4.99999858438969,415.000006183982,15.));
#579=CARTESIAN_POINT('',(4.99999858438969,415.000006183982,15.));
#580=CARTESIAN_POINT('',(4.99999858438969,415.000006183982,5.));
#581=CARTESIAN_POINT('Origin',(24.9999988824129,415.000006183982,5.));
#582=CARTESIAN_POINT('',(24.9999988824129,415.000006183982,15.));
#583=CARTESIAN_POINT('',(24.9999988824129,415.000006183982,15.));
#584=CARTESIAN_POINT('',(24.9999988824129,415.000006183982,5.));
#585=CARTESIAN_POINT('Origin',(14.9999987334013,410.000006109476,15.));
#586=CARTESIAN_POINT('',(24.9999988824129,405.00000603497,15.));
#587=CARTESIAN_POINT('Origin',(50.,332.5,0.));
#588=CARTESIAN_POINT('',(25.,225.,0.));
#589=CARTESIAN_POINT('',(25.,440.,0.));
#590=CARTESIAN_POINT('',(25.,332.5,0.));
#591=CARTESIAN_POINT('',(-95.,225.,0.));
#592=CARTESIAN_POINT('',(195.,225.,0.));
#593=CARTESIAN_POINT('',(-95.,440.,0.));
#594=CARTESIAN_POINT('',(-95.,225.,0.));
#595=CARTESIAN_POINT('',(-95.,440.,0.));
#596=CARTESIAN_POINT('',(-73.,435.,0.));
#597=CARTESIAN_POINT('Origin',(-75.,435.,0.));
#598=CARTESIAN_POINT('',(-73.,230.,0.));
#599=CARTESIAN_POINT('Origin',(-75.,230.,0.));
#600=CARTESIAN_POINT('Origin',(-95.,440.,0.));
#601=CARTESIAN_POINT('',(-95.,225.,0.));
#602=CARTESIAN_POINT('',(-95.,440.,0.));
#603=CARTESIAN_POINT('Origin',(-95.,225.,0.));
#604=CARTESIAN_POINT('',(25.,225.,11.25));
#605=CARTESIAN_POINT('Origin',(-75.,435.,5.));
#606=CARTESIAN_POINT('',(-73.,435.,5.));
#607=CARTESIAN_POINT('Origin',(-75.,230.,5.));
#608=CARTESIAN_POINT('',(-73.,230.,5.));
#609=CARTESIAN_POINT('Origin',(195.,440.,0.));
#610=CARTESIAN_POINT('',(25.,440.,11.25));
#611=CARTESIAN_POINT('Origin',(25.,332.5,22.5));
#612=UNCERTAINTY_MEASURE_WITH_UNIT(LENGTH_MEASURE(0.01),#616,
'DISTANCE_ACCURACY_VALUE',
'Maximum model space distance between geometric entities at asserted c
onnectivities');
#613=UNCERTAINTY_MEASURE_WITH_UNIT(LENGTH_MEASURE(0.01),#616,
'DISTANCE_ACCURACY_VALUE',
'Maximum model space distance between geometric entities at asserted c
onnectivities');
#614=(
GEOMETRIC_REPRESENTATION_CONTEXT(3)
GLOBAL_UNCERTAINTY_ASSIGNED_CONTEXT((#612))
GLOBAL_UNIT_ASSIGNED_CONTEXT((#616,#618,#619))
REPRESENTATION_CONTEXT('','3D')
);
#615=(
GEOMETRIC_REPRESENTATION_CONTEXT(3)
GLOBAL_UNCERTAINTY_ASSIGNED_CONTEXT((#613))
GLOBAL_UNIT_ASSIGNED_CONTEXT((#616,#618,#619))
REPRESENTATION_CONTEXT('','3D')
);
#616=(
LENGTH_UNIT()
NAMED_UNIT(*)
SI_UNIT(.MILLI.,.METRE.)
);
#617=(
LENGTH_UNIT()
NAMED_UNIT(*)
SI_UNIT($,.METRE.)
);
#618=(
NAMED_UNIT(*)
PLANE_ANGLE_UNIT()
SI_UNIT($,.RADIAN.)
);
#619=(
NAMED_UNIT(*)
SI_UNIT($,.STERADIAN.)
SOLID_ANGLE_UNIT()
);
#620=SHAPE_DEFINITION_REPRESENTATION(#621,#622);
#621=PRODUCT_DEFINITION_SHAPE('',$,#624);
#622=SHAPE_REPRESENTATION('',(#384),#614);
#623=PRODUCT_DEFINITION_CONTEXT('part definition',#628,'design');
#624=PRODUCT_DEFINITION('2026-07-07-20-26-50-994',
'Fusion \X2\30B330F330DD30FC30CD30F330C8\X0\',#625,#623);
#625=PRODUCT_DEFINITION_FORMATION('',$,#630);
#626=PRODUCT_RELATED_PRODUCT_CATEGORY('Fusion \X2\30B330F330DD30FC30CD30F330C8\X0\',
'Fusion \X2\30B330F330DD30FC30CD30F330C8\X0\',(#630));
#627=APPLICATION_PROTOCOL_DEFINITION('international standard',
'automotive_design',2009,#628);
#628=APPLICATION_CONTEXT(
'Core Data for Automotive Mechanical Design Process');
#629=PRODUCT_CONTEXT('part definition',#628,'mechanical');
#630=PRODUCT('2026-07-07-20-26-50-994','Fusion \X2\30B330F330DD30FC30CD30F330C8\X0\',
$,(#629));
#631=PRESENTATION_STYLE_ASSIGNMENT((#632));
#632=SURFACE_STYLE_USAGE(.BOTH.,#633);
#633=SURFACE_SIDE_STYLE('',(#634));
#634=SURFACE_STYLE_FILL_AREA(#635);
#635=FILL_AREA_STYLE('\X2\92FC\X0\ - \X2\30B530C630F3\X0\',(#636));
#636=FILL_AREA_STYLE_COLOUR('\X2\92FC\X0\ - \X2\30B530C630F3\X0\',#637);
#637=COLOUR_RGB('\X2\92FC\X0\ - \X2\30B530C630F3\X0\',0.627450980392157,
0.627450980392157,0.627450980392157);
ENDSEC;
END-ISO-10303-21;
